<svg width="138" height="23" viewBox="0 0 138 23" fill="none" xmlns="http://www.w3.org/2000/svg">
<mask id="path-1-inside-1_120_8" fill="white">
<path fill-rule="evenodd" clip-rule="evenodd" d="M11.8034 22.865C11.7971 22.865 11.7908 22.865 11.7844 22.865C5.72749 22.865 0.817383 17.9549 0.817383 11.898C0.817383 5.84104 5.72747 0.930933 11.7844 0.930914V0.930899H126.257H127.031V0.9578C132.727 1.355 137.224 6.10128 137.224 11.8979C137.224 17.6946 132.727 22.4409 127.031 22.8381V22.865H126.257H11.8034Z"/>
</mask>
<path fill-rule="evenodd" clip-rule="evenodd" d="M11.8034 22.865C11.7971 22.865 11.7908 22.865 11.7844 22.865C5.72749 22.865 0.817383 17.9549 0.817383 11.898C0.817383 5.84104 5.72747 0.930933 11.7844 0.930914V0.930899H126.257H127.031V0.9578C132.727 1.355 137.224 6.10128 137.224 11.8979C137.224 17.6946 132.727 22.4409 127.031 22.8381V22.865H126.257H11.8034Z" fill="#D9D9D9" fill-opacity="0.3"/>
<path d="M11.8034 22.865L11.8026 22.365H11.8034V22.865ZM11.7844 0.930914H12.2844V1.43091L11.7844 1.43091L11.7844 0.930914ZM11.7844 0.930899H11.2844V0.430899H11.7844V0.930899ZM127.031 0.930899V0.430899H127.531V0.930899H127.031ZM127.031 0.9578L126.996 1.45659L126.531 1.42415V0.9578H127.031ZM127.031 22.8381H126.531V22.3717L126.996 22.3393L127.031 22.8381ZM127.031 22.865H127.531V23.365H127.031V22.865ZM11.8043 23.365C11.7976 23.365 11.791 23.365 11.7844 23.365V22.365C11.7905 22.365 11.7965 22.365 11.8026 22.365L11.8043 23.365ZM11.7844 23.365C5.45135 23.365 0.317383 18.231 0.317383 11.898H1.31738C1.31738 17.6787 6.00364 22.365 11.7844 22.365V23.365ZM0.317383 11.898C0.317383 5.56489 5.45133 0.430933 11.7844 0.430914L11.7844 1.43091C6.00362 1.43093 1.31738 6.11718 1.31738 11.898H0.317383ZM12.2844 0.930899V0.930914H11.2844V0.930899H12.2844ZM126.257 1.4309H11.7844V0.430899H126.257V1.4309ZM127.031 1.4309H126.257V0.430899H127.031V1.4309ZM126.531 0.9578V0.930899H127.531V0.9578H126.531ZM127.066 0.459011C133.022 0.87435 137.724 5.83679 137.724 11.8979H136.724C136.724 6.36576 132.432 1.83564 126.996 1.45659L127.066 0.459011ZM137.724 11.8979C137.724 17.9591 133.022 22.9215 127.066 23.3369L126.996 22.3393C132.432 21.9602 136.724 17.4301 136.724 11.8979H137.724ZM126.531 22.865V22.8381H127.531V22.865H126.531ZM126.257 22.365H127.031V23.365H126.257V22.365ZM11.8034 22.365H126.257V23.365H11.8034V22.365Z" fill="white" fill-opacity="0.8" mask="url(#path-1-inside-1_120_8)"/>
<path d="M24.6499 8.55562H27.1759C27.6792 8.55562 28.1095 8.65038 28.4668 8.8399C28.8272 9.02943 29.0991 9.29352 29.2824 9.63218C29.4657 9.96773 29.5574 10.3546 29.5574 10.7926C29.5574 11.2276 29.4642 11.6129 29.2777 11.9484C29.0913 12.2809 28.8179 12.5434 28.4575 12.736C28.1002 12.9256 27.6668 13.0203 27.1572 13.0203H25.4795V12.0183H26.9941C27.2924 12.0183 27.5394 11.9671 27.7351 11.8645C27.934 11.7589 28.08 11.6144 28.1732 11.4311C28.2695 11.2478 28.3177 11.035 28.3177 10.7926C28.3177 10.5441 28.2695 10.3297 28.1732 10.1495C28.08 9.96618 27.934 9.82481 27.7351 9.72539C27.5363 9.62286 27.2877 9.5716 26.9895 9.5716H25.8616V15.304H24.6499V8.55562ZM30.9667 10.2427H32.1132V11.0862H32.1691C32.2592 10.7942 32.4161 10.5689 32.6398 10.4105C32.8635 10.2489 33.1214 10.1681 33.4134 10.1681C33.5626 10.1681 33.707 10.179 33.8469 10.2008V11.296C33.7971 11.2742 33.7164 11.2571 33.6045 11.2447C33.4927 11.2323 33.3886 11.2261 33.2923 11.2261C33.0779 11.2261 32.8837 11.2727 32.7097 11.3659C32.5357 11.4591 32.399 11.5896 32.2996 11.7573C32.2002 11.922 32.1504 12.1115 32.1504 12.3259V15.304H30.9667V10.2427ZM37.0784 15.4018C36.5937 15.4018 36.1665 15.2931 35.7968 15.0756C35.4302 14.8581 35.1474 14.5521 34.9486 14.1575C34.7497 13.7629 34.6503 13.3077 34.6503 12.792C34.6503 12.27 34.7497 11.8133 34.9486 11.4218C35.1474 11.0272 35.4302 10.7212 35.7968 10.5037C36.1665 10.2862 36.5937 10.1775 37.0784 10.1775C37.5662 10.1775 37.9934 10.2862 38.36 10.5037C38.7267 10.7212 39.0078 11.0272 39.2036 11.4218C39.3993 11.8133 39.4972 12.27 39.4972 12.792C39.4972 13.3077 39.3993 13.7629 39.2036 14.1575C39.0078 14.5521 38.7267 14.8581 38.36 15.0756C37.9934 15.2931 37.5662 15.4018 37.0784 15.4018ZM37.0877 14.4558C37.3487 14.4558 37.5693 14.3827 37.7495 14.2367C37.9328 14.0876 38.0695 13.8872 38.1596 13.6355C38.2497 13.3838 38.2948 13.1011 38.2948 12.7873C38.2948 12.4704 38.2497 12.1861 38.1596 11.9344C38.0695 11.6828 37.9328 11.4839 37.7495 11.3379C37.5693 11.1888 37.3487 11.1142 37.0877 11.1142C36.8205 11.1142 36.5937 11.1888 36.4073 11.3379C36.2209 11.4839 36.0811 11.6828 35.9879 11.9344C35.8947 12.1861 35.8481 12.4704 35.8481 12.7873C35.8481 13.1042 35.8947 13.3885 35.9879 13.6402C36.0811 13.8887 36.2209 14.0876 36.4073 14.2367C36.5937 14.3827 36.8205 14.4558 37.0877 14.4558ZM43.1016 17.308C42.6635 17.308 42.2767 17.2443 41.9411 17.1169C41.6087 16.9926 41.3477 16.8139 41.1582 16.5809C40.9687 16.351 40.8584 16.076 40.8273 15.756H42.011C42.0576 15.9735 42.1773 16.1366 42.3699 16.2454C42.5625 16.3541 42.8126 16.4085 43.1202 16.4085C43.4962 16.4085 43.7867 16.323 43.9917 16.1522C44.1968 15.9844 44.2993 15.7203 44.2993 15.3599V14.3952H44.2387C44.1611 14.5536 44.0647 14.6919 43.9498 14.8099C43.8379 14.9249 43.6841 15.0243 43.4884 15.1082C43.2927 15.1921 43.0581 15.234 42.7847 15.234C42.387 15.234 42.0297 15.1393 41.7128 14.9498C41.399 14.7571 41.1504 14.4728 40.9671 14.0969C40.7838 13.7178 40.6921 13.2611 40.6921 12.7267C40.6921 12.1892 40.7838 11.7294 40.9671 11.3472C41.1504 10.962 41.4005 10.6715 41.7174 10.4757C42.0343 10.2769 42.3901 10.1775 42.7847 10.1775C43.0643 10.1775 43.3004 10.2241 43.4931 10.3173C43.6857 10.4074 43.8333 10.5115 43.9358 10.6295C44.0383 10.7445 44.1409 10.8936 44.2434 11.0769H44.304V10.2427H45.4738V15.3878C45.4738 15.8042 45.3728 16.1568 45.1708 16.4458C44.972 16.7347 44.6939 16.9506 44.3366 17.0936C43.9793 17.2365 43.5676 17.308 43.1016 17.308ZM43.1062 14.2973C43.361 14.2973 43.5785 14.2352 43.7587 14.1109C43.9389 13.9866 44.0756 13.8095 44.1688 13.5796C44.2651 13.3466 44.3133 13.0685 44.3133 12.7454C44.3133 12.4222 44.2651 12.1411 44.1688 11.9018C44.0756 11.6626 43.9389 11.4777 43.7587 11.3472C43.5816 11.2167 43.3641 11.1515 43.1062 11.1515C42.8515 11.1515 42.634 11.2198 42.4538 11.3565C42.2736 11.4901 42.1369 11.6781 42.0437 11.9205C41.9505 12.1597 41.9039 12.4347 41.9039 12.7454C41.9039 13.0592 41.9505 13.3326 42.0437 13.5656C42.1369 13.7986 42.2736 13.9788 42.4538 14.1062C42.634 14.2336 42.8515 14.2973 43.1062 14.2973ZM47.0975 10.2427H48.2439V11.0862H48.2999C48.39 10.7942 48.5469 10.5689 48.7706 10.4105C48.9943 10.2489 49.2521 10.1681 49.5442 10.1681C49.6933 10.1681 49.8378 10.179 49.9776 10.2008V11.296C49.9279 11.2742 49.8471 11.2571 49.7353 11.2447C49.6234 11.2323 49.5193 11.2261 49.423 11.2261C49.2086 11.2261 49.0145 11.2727 48.8405 11.3659C48.6665 11.4591 48.5298 11.5896 48.4304 11.7573C48.3309 11.922 48.2812 12.1115 48.2812 12.3259V15.304H47.0975V10.2427ZM54.09 13.0623C53.9844 13.0654 53.7467 13.0794 53.377 13.1042L52.9063 13.1415C52.6142 13.1664 52.3874 13.2394 52.2258 13.3605C52.0643 13.4817 51.9835 13.651 51.9835 13.8685C51.9835 14.0083 52.0192 14.128 52.0907 14.2274C52.1621 14.3237 52.2631 14.3983 52.3936 14.4511C52.5272 14.5039 52.6763 14.5303 52.841 14.5303C53.0771 14.5303 53.2837 14.4837 53.4608 14.3905C53.6411 14.2942 53.7793 14.1668 53.8756 14.0083C53.975 13.8499 54.0248 13.6759 54.0248 13.4864L54.0154 11.8692C54.0154 11.7014 53.9813 11.5585 53.9129 11.4404C53.8446 11.3224 53.7405 11.2338 53.6007 11.1748C53.464 11.1158 53.2962 11.0862 53.0973 11.0862C52.8426 11.0862 52.6328 11.1391 52.4682 11.2447C52.3066 11.3503 52.2025 11.4964 52.1559 11.6828H51.0001C51.0343 11.3938 51.1399 11.136 51.317 10.9091C51.4972 10.6792 51.7411 10.5006 52.0487 10.3732C52.3594 10.2427 52.7198 10.1775 53.13 10.1775C53.4904 10.1775 53.8244 10.2318 54.132 10.3406C54.4395 10.4493 54.6943 10.6342 54.8963 10.8952C55.0982 11.153 55.1992 11.4933 55.1992 11.9158V15.304H54.062V14.6049H54.0248C53.9471 14.7571 53.8414 14.8923 53.7079 15.0103C53.5774 15.1284 53.4127 15.2247 53.2138 15.2993C53.015 15.3708 52.7882 15.4065 52.5334 15.4065C52.2072 15.4065 51.9167 15.3475 51.6619 15.2294C51.4071 15.1113 51.2052 14.9373 51.0561 14.7074C50.91 14.4775 50.837 14.2025 50.837 13.8825C50.837 13.3543 51.0126 12.9753 51.3636 12.7454C51.7147 12.5123 52.1683 12.3787 52.7245 12.3446C52.8053 12.3352 53.0958 12.3197 53.596 12.298L54.0807 12.2793L54.09 13.0623ZM56.8043 10.2427H57.9367V11.1002H57.9927C58.1045 10.8082 58.2801 10.5814 58.5193 10.4198C58.7616 10.2582 59.0521 10.1775 59.3908 10.1775C59.6145 10.1775 59.818 10.2147 60.0013 10.2893C60.1846 10.3608 60.34 10.4648 60.4674 10.6016C60.5948 10.7383 60.6911 10.9045 60.7563 11.1002H60.8076C60.8853 10.9107 60.9971 10.7476 61.1431 10.6109C61.2892 10.4711 61.4632 10.3639 61.6651 10.2893C61.8702 10.2147 62.0923 10.1775 62.3316 10.1775C62.6454 10.1775 62.9203 10.2443 63.1565 10.3779C63.3957 10.5083 63.5806 10.7041 63.7111 10.9651C63.8447 11.2229 63.9115 11.5383 63.9115 11.9111V15.304H62.723V12.0882C62.723 11.7869 62.6423 11.5601 62.4807 11.4078C62.3191 11.2525 62.1094 11.1748 61.8515 11.1748C61.662 11.1748 61.4973 11.2167 61.3575 11.3006C61.2208 11.3814 61.1152 11.4933 61.0406 11.6362C60.9692 11.7791 60.9334 11.9469 60.9334 12.1395V15.304H59.773V12.037C59.773 11.8661 59.7372 11.7154 59.6658 11.5849C59.5943 11.4513 59.4949 11.3503 59.3675 11.282C59.2401 11.2105 59.0925 11.1748 58.9248 11.1748C58.7539 11.1748 58.597 11.2183 58.4541 11.3053C58.3111 11.3923 58.1977 11.515 58.1138 11.6735C58.03 11.8319 57.988 12.0152 57.988 12.2234V15.304H56.8043V10.2427ZM65.5305 10.2427H66.663V11.1002H66.7189C66.8308 10.8082 67.0063 10.5814 67.2455 10.4198C67.4879 10.2582 67.7784 10.1775 68.117 10.1775C68.3407 10.1775 68.5443 10.2147 68.7276 10.2893C68.9109 10.3608 69.0662 10.4648 69.1936 10.6016C69.321 10.7383 69.4173 10.9045 69.4826 11.1002H69.5338C69.6115 10.9107 69.7234 10.7476 69.8694 10.6109C70.0154 10.4711 70.1894 10.3639 70.3913 10.2893C70.5964 10.2147 70.8186 10.1775 71.0578 10.1775C71.3716 10.1775 71.6466 10.2443 71.8827 10.3779C72.1219 10.5083 72.3068 10.7041 72.4373 10.9651C72.5709 11.2229 72.6377 11.5383 72.6377 11.9111V15.304H71.4493V12.0882C71.4493 11.7869 71.3685 11.5601 71.2069 11.4078C71.0454 11.2525 70.8356 11.1748 70.5778 11.1748C70.3882 11.1748 70.2236 11.2167 70.0838 11.3006C69.9471 11.3814 69.8414 11.4933 69.7668 11.6362C69.6954 11.7791 69.6597 11.9469 69.6597 12.1395V15.304H68.4992V12.037C68.4992 11.8661 68.4635 11.7154 68.392 11.5849C68.3206 11.4513 68.2211 11.3503 68.0937 11.282C67.9664 11.2105 67.8188 11.1748 67.651 11.1748C67.4801 11.1748 67.3232 11.2183 67.1803 11.3053C67.0374 11.3923 66.924 11.515 66.8401 11.6735C66.7562 11.8319 66.7143 12.0152 66.7143 12.2234V15.304H65.5305V10.2427ZM74.2567 10.2427H75.4405V15.304H74.2567V10.2427ZM74.8439 9.52033C74.7228 9.52033 74.6094 9.49237 74.5037 9.43644C74.3981 9.37741 74.3142 9.29818 74.2521 9.19876C74.1899 9.09934 74.1589 8.99215 74.1589 8.87719C74.1589 8.75912 74.1899 8.65038 74.2521 8.55096C74.3142 8.45153 74.3981 8.37386 74.5037 8.31793C74.6094 8.26201 74.7228 8.23404 74.8439 8.23404C74.9713 8.23404 75.0878 8.26201 75.1935 8.31793C75.2991 8.37386 75.383 8.45153 75.4451 8.55096C75.5073 8.65038 75.5384 8.75912 75.5384 8.87719C75.5384 8.99215 75.5073 9.09934 75.4451 9.19876C75.383 9.29818 75.2991 9.37741 75.1935 9.43644C75.0878 9.49237 74.9713 9.52033 74.8439 9.52033ZM78.2479 15.304H77.0642V10.2427H78.1967V11.1002H78.2526C78.3769 10.8082 78.5664 10.5814 78.8212 10.4198C79.0759 10.2582 79.3898 10.1775 79.7626 10.1775C80.1137 10.1775 80.4182 10.252 80.676 10.4012C80.937 10.5472 81.1374 10.7631 81.2772 11.049C81.4202 11.3348 81.4916 11.6781 81.4916 12.0789V15.304H80.3079V12.2607C80.3079 12.0339 80.269 11.8412 80.1914 11.6828C80.1137 11.5212 80.0018 11.3969 79.8558 11.3099C79.7098 11.2229 79.5311 11.1795 79.3198 11.1795C79.1086 11.1795 78.9222 11.2245 78.7606 11.3146C78.599 11.4047 78.4732 11.5368 78.3831 11.7107C78.293 11.8847 78.2479 12.0929 78.2479 12.3352V15.304ZM85.3104 17.308C84.8723 17.308 84.4855 17.2443 84.1499 17.1169C83.8175 16.9926 83.5565 16.8139 83.367 16.5809C83.1775 16.351 83.0672 16.076 83.0361 15.756H84.2199C84.2665 15.9735 84.3861 16.1366 84.5787 16.2454C84.7713 16.3541 85.0214 16.4085 85.329 16.4085C85.705 16.4085 85.9955 16.323 86.2005 16.1522C86.4056 15.9844 86.5081 15.7203 86.5081 15.3599V14.3952H86.4475C86.3699 14.5536 86.2736 14.6919 86.1586 14.8099C86.0467 14.9249 85.893 15.0243 85.6972 15.1082C85.5015 15.1921 85.2669 15.234 84.9935 15.234C84.5958 15.234 84.2385 15.1393 83.9216 14.9498C83.6078 14.7571 83.3592 14.4728 83.1759 14.0969C82.9926 13.7178 82.9009 13.2611 82.9009 12.7267C82.9009 12.1892 82.9926 11.7294 83.1759 11.3472C83.3592 10.962 83.6093 10.6715 83.9262 10.4757C84.2432 10.2769 84.5989 10.1775 84.9935 10.1775C85.2731 10.1775 85.5092 10.2241 85.7019 10.3173C85.8945 10.4074 86.0421 10.5115 86.1446 10.6295C86.2471 10.7445 86.3497 10.8936 86.4522 11.0769H86.5128V10.2427H87.6826V15.3878C87.6826 15.8042 87.5816 16.1568 87.3796 16.4458C87.1808 16.7347 86.9027 16.9506 86.5454 17.0936C86.1881 17.2365 85.7764 17.308 85.3104 17.308ZM85.3151 14.2973C85.5698 14.2973 85.7873 14.2352 85.9675 14.1109C86.1477 13.9866 86.2844 13.8095 86.3776 13.5796C86.474 13.3466 86.5221 13.0685 86.5221 12.7454C86.5221 12.4222 86.474 12.1411 86.3776 11.9018C86.2844 11.6626 86.1477 11.4777 85.9675 11.3472C85.7904 11.2167 85.5729 11.1515 85.3151 11.1515C85.0603 11.1515 84.8428 11.2198 84.6626 11.3565C84.4824 11.4901 84.3457 11.6781 84.2525 11.9205C84.1593 12.1597 84.1127 12.4347 84.1127 12.7454C84.1127 13.0592 84.1593 13.3326 84.2525 13.5656C84.3457 13.7986 84.4824 13.9788 84.6626 14.1062C84.8428 14.2336 85.0603 14.2973 85.3151 14.2973ZM96.653 10.8299C96.6095 10.5658 96.5116 10.3375 96.3594 10.1448C96.2103 9.9522 96.0207 9.80617 95.7908 9.70675C95.564 9.60422 95.3139 9.55295 95.0405 9.55295C94.6708 9.55295 94.343 9.64616 94.0571 9.83258C93.7744 10.0159 93.5523 10.2862 93.3907 10.6435C93.2322 11.0008 93.153 11.4296 93.153 11.9298C93.153 12.4362 93.2322 12.8681 93.3907 13.2254C93.5523 13.5796 93.7744 13.8483 94.0571 14.0317C94.343 14.215 94.6692 14.3066 95.0358 14.3066C95.3061 14.3066 95.5531 14.2585 95.7768 14.1621C96.0005 14.0627 96.1885 13.9198 96.3408 13.7334C96.4961 13.547 96.6002 13.3248 96.653 13.0669L97.8787 13.0716C97.8166 13.5035 97.6597 13.8965 97.408 14.2507C97.1563 14.6049 96.8254 14.8845 96.4153 15.0896C96.0052 15.2946 95.5407 15.3972 95.0219 15.3972C94.4284 15.3972 93.8971 15.2589 93.428 14.9824C92.9619 14.7028 92.5969 14.302 92.3328 13.78C92.0687 13.2549 91.9366 12.6382 91.9366 11.9298C91.9366 11.2152 92.0702 10.5969 92.3374 10.0749C92.6046 9.55295 92.9697 9.15371 93.4326 8.87719C93.8987 8.60067 94.4284 8.46241 95.0219 8.46241C95.519 8.46241 95.971 8.55717 96.378 8.74669C96.7882 8.93311 97.1222 9.20497 97.38 9.56227C97.641 9.91647 97.8072 10.339 97.8787 10.8299H96.653ZM100.532 15.304H99.3486V8.55562H100.532V15.304ZM105.381 10.2427H106.56V15.304H105.418V14.4091H105.362C105.238 14.7012 105.046 14.9342 104.785 15.1082C104.527 15.2822 104.211 15.3692 103.838 15.3692C103.506 15.3692 103.212 15.2946 102.958 15.1455C102.706 14.9933 102.509 14.7742 102.366 14.4884C102.226 14.2025 102.156 13.8608 102.156 13.4631V10.2427H103.34V13.2813C103.34 13.4926 103.379 13.6775 103.456 13.8359C103.537 13.9944 103.651 14.1171 103.797 14.2041C103.943 14.288 104.109 14.3299 104.295 14.3299C104.482 14.3299 104.657 14.2864 104.822 14.1994C104.99 14.1093 105.125 13.9773 105.227 13.8033C105.33 13.6262 105.381 13.4165 105.381 13.1741V10.2427ZM108.24 8.55562H109.424V11.0769H109.475C109.58 10.8936 109.683 10.7445 109.782 10.6295C109.882 10.5115 110.028 10.4074 110.221 10.3173C110.413 10.2241 110.648 10.1775 110.924 10.1775C111.319 10.1775 111.675 10.2784 111.991 10.4804C112.308 10.6792 112.559 10.9759 112.742 11.3705C112.925 11.762 113.017 12.2312 113.017 12.778C113.017 13.3186 112.927 13.7862 112.746 14.1808C112.566 14.5754 112.318 14.8767 112.001 15.0849C111.687 15.29 111.328 15.3925 110.924 15.3925C110.657 15.3925 110.427 15.3475 110.235 15.2574C110.042 15.1641 109.89 15.0585 109.778 14.9404C109.669 14.8193 109.568 14.6748 109.475 14.507H109.4V15.304H108.24V8.55562ZM109.4 12.7687C109.4 13.098 109.447 13.387 109.54 13.6355C109.636 13.8841 109.773 14.0767 109.95 14.2134C110.13 14.3501 110.346 14.4185 110.598 14.4185C110.853 14.4185 111.07 14.3486 111.25 14.2087C111.434 14.0658 111.572 13.8716 111.665 13.6262C111.758 13.3776 111.805 13.0918 111.805 12.7687C111.805 12.4518 111.76 12.1706 111.67 11.9251C111.58 11.6797 111.443 11.4901 111.26 11.3565C111.076 11.2198 110.856 11.1515 110.598 11.1515C110.343 11.1515 110.127 11.2183 109.95 11.3519C109.773 11.4824 109.636 11.6688 109.54 11.9111C109.447 12.1535 109.4 12.4393 109.4 12.7687Z" fill="white"/>
</svg>
